<svg id="Capa_1" data-name="Capa 1" xmlns="http://www.w3.org/2000/svg" viewBox="0 0 764.08 313.87">
  <defs>
    <style>
      .cls-1, .cls-2 {
        fill: #fff;
      }

      .cls-1 {
        stroke: #fff;
        stroke-miterlimit: 10;
      }
    </style>
  </defs>
  <g>
    <path class="cls-1" d="M234.15,658.78l.25.22-.12-.1Z" transform="translate(-157.96 -383.07)"/>
    <path class="cls-2" d="M401.88,579.83c-2.68,3.61-7,7.78-13.63,12.58-24.47,17.76-60,16.58-101,15.6s-67.82,8-68.6,22.74c-.64,11.94,10.2,23.15,14.41,27q-4.77-4.17-9.16-8.72c-24.78-28.16-12-58.68,25.4-62.72,42.33-4.57,80.53,11.48,120.74,5C385.41,588.84,395.41,584.38,401.88,579.83Z" transform="translate(-157.96 -383.07)"/>
    <path class="cls-2" d="M493.48,532.28a2.94,2.94,0,0,0-4.8-2.12c-12.23,9.91-30.54,21.11-47.89,17.61-49.59-10.07-62.88-64.95-66.36-98.12a2.16,2.16,0,0,1,4.24-.73c18.94,74.2,52.14,92.82,80.55,83.17,30.86-10.48,27.7-38.24,22.83-51.45C459.38,419,402.4,383.07,336.73,383.07A156.45,156.45,0,0,0,276,395.25l0,0c-33.74,18.24-32,36.43-43.09,46.48-2.44,2.22-6,3.81-10.08,4.95A76.37,76.37,0,0,1,208.89,449c-11.22.91-23.47.36-31.86.22,1.22,1.18,2.31,2.65,2.31,4.18,0,4-13.74,23.73-17.89,23.73a8.49,8.49,0,0,1-3.49-.94c.25,7.26,1.19,16.73,4.45,25.49s8.81,16.83,18.31,21.29c19.54,9.17,37.06-2.5,45.87-10.4A2.14,2.14,0,0,1,230,515a38.21,38.21,0,0,1-6.62,9.91c-8.64,9.35-19.87,12.1-24.33,12.84a.5.5,0,0,0-.1,1c7.15,2.71,33.58,12.13,48.27,9.72,20.27-3.33,18.49-16.94,32.09-37,17.76-26.25,45.39-42,50-39.34s-.74,14.94,4.29,20.71,24.81,4.56,36.66,21c13.75,19.07,14.06,41.11,27.94,47.32,4.86,2.16,11.81,7.89,3.73,18.77-2.69,3.6-7,7.77-13.62,12.57-24.48,17.75-60,16.59-101,15.61s-67.82,8-68.61,22.73c-.63,11.93,10.22,23.16,14.42,27a1.62,1.62,0,0,1,.19.17,1.45,1.45,0,0,1,.18.16c.29.27.54.48.74.66l.25.2.18.16a.07.07,0,0,1,0,0l.06,0h0a156.25,156.25,0,0,0,100.62,37.69c84.79.75,155.49-66.81,158.27-151.55C493.72,541,493.69,536.61,493.48,532.28ZM299.94,450.09a5.32,5.32,0,0,1-7.11-2.46,13.79,13.79,0,0,0-11.92-7.06c-8.41,0-12.56,7-12.72,7.35a5.3,5.3,0,0,1-4.64,2.73A5.2,5.2,0,0,1,261,450a5.32,5.32,0,0,1-2.08-7.25c.29-.52,7.22-12.8,22-12.8,15,0,21.25,12.51,21.5,13.05A5.31,5.31,0,0,1,299.94,450.09Z" transform="translate(-157.96 -383.07)"/>
    <path class="cls-2" d="M370.27,546.44a3.34,3.34,0,0,1-3-1.87,7.26,7.26,0,0,0-6.26-3.7,8.18,8.18,0,0,0-6.7,3.85,3.33,3.33,0,0,1-5.83-3.21c.17-.3,4.12-7.29,12.53-7.29a14,14,0,0,1,12.25,7.44,3.34,3.34,0,0,1-1.54,4.45A3.41,3.41,0,0,1,370.27,546.44Z" transform="translate(-157.96 -383.07)"/>
    <g>
      <g>
        <path class="cls-2" d="M585.31,630.85c2.72,0,6.55.41,9.55,3.62,2.57,3,2.92,6.41,2.92,9.75v22c0,3.35-.35,6.76-2.92,9.76-3,3.2-6.83,3.62-9.55,3.62h-9.75V630.85Zm7.25,35V644.64c0-1.88-.07-4.74-1.95-6.69-1.68-1.88-3.83-2-5.58-2h-4.25v38.59H585c1.75,0,3.9-.13,5.58-2C592.49,670.55,592.56,667.7,592.56,665.82Z" transform="translate(-157.96 -383.07)"/>
        <path class="cls-2" d="M610.67,630.85v48.76h-5.23V630.85Z" transform="translate(-157.96 -383.07)"/>
        <path class="cls-2" d="M635.4,642.55a8.75,8.75,0,0,0-1.47-5.3,5.49,5.49,0,0,0-4.66-2,5.72,5.72,0,0,0-4.25,1.61c-1.68,1.74-1.81,4-1.81,5.92a11.21,11.21,0,0,0,1.25,5.85,8.94,8.94,0,0,0,3.83,2.65l4.46,1.6c2,.76,4.6,1.88,6.2,4.11,1.74,2.44,1.95,5,1.95,8.08v1.74c0,4.81-1.32,8.29-3.2,10.45-1.75,1.88-4.81,3.07-8.71,3.07-4.81,0-7.8-1.68-9.41-3.83-2-2.79-2.09-7.46-2.09-8.09v-1.74h5.23v1.4a9,9,0,0,0,1.39,5.15,5.93,5.93,0,0,0,4.81,2c3.27,0,4.6-1.25,5.36-2.16,1.33-1.67,1.39-4,1.39-5.64v-1.88c0-1.88-.2-4.32-1.39-5.78a8.25,8.25,0,0,0-4-2.65L625,655.23A9.25,9.25,0,0,1,619,650a17.37,17.37,0,0,1-1-6.89v-1.47a11.6,11.6,0,0,1,3.48-8.71c2.16-2.15,4.95-2.78,8-2.78,6.69,0,11.15,4.25,11.15,12.12v1.67H635.4Z" transform="translate(-157.96 -383.07)"/>
        <path class="cls-2" d="M665.21,630.85v4.8h-9.05v44h-5.23v-44h-9v-4.8Z" transform="translate(-157.96 -383.07)"/>
        <path class="cls-2" d="M679.7,630.85c5.29,0,12.89.69,12.89,11.56v3.83c0,5.36-2.23,9-6.69,10.38l7.8,23h-5.43l-7.18-21.94h-5.92v21.94H670V630.85Zm-4.53,22.29h5.16c3.9,0,7-2.16,7-6.55V642c0-6.06-4.66-6.62-7.31-6.62h-4.88Z" transform="translate(-157.96 -383.07)"/>
        <path class="cls-2" d="M704.78,630.85v48.76h-5.23V630.85Z" transform="translate(-157.96 -383.07)"/>
        <path class="cls-2" d="M722.75,630.85c6.69,0,12,3.48,12,10.72v3.07c0,4.39-1.39,7.52-6.13,9.54,5.85,2,6.13,6.34,6.13,9.62v3.83c0,3.06-.35,12-12,12h-10V630.85Zm-4.67,21h4c5.85,0,7.46-3.9,7.46-7.24V641.5c0-3.06-2.17-6.13-7.11-6.13h-4.39Zm0,23.2h4.25c4.25,0,7.25-2.58,7.25-8.36v-3.48a6.55,6.55,0,0,0-6.83-6.83h-4.67Z" transform="translate(-157.96 -383.07)"/>
        <path class="cls-2" d="M747.2,630.85v37.54c0,4.11,1.95,6.83,5.85,6.83s5.85-2.72,5.85-6.83V630.85h5.23v36.43c0,10.31-6.06,13-11.08,13s-11.08-2.72-11.08-13V630.85Z" transform="translate(-157.96 -383.07)"/>
        <path class="cls-2" d="M788.44,641.36c0-1.74-.7-6.13-5.71-6.13-5.51,0-6,4.74-6,7.39v26.26c0,1.74.84,6.34,5.65,6.34,2.71,0,6.06-1.18,6.06-6.83v-1.53h5.29v1.81c0,7-3.2,11.64-11.56,11.64-9.76,0-10.66-7.95-10.66-10.73V640.74c0-5.58,3.83-10.59,10.94-10.59,6.06,0,11.07,2.92,11.07,10.66v3.13h-5.08Z" transform="translate(-157.96 -383.07)"/>
        <path class="cls-2" d="M804.53,630.85v48.76H799.3V630.85Z" transform="translate(-157.96 -383.07)"/>
        <path class="cls-2" d="M812.26,643.18c0-3.63.35-7.11,3.48-10.11a13,13,0,0,1,16.44,0c3.14,3,3.49,6.48,3.49,10.11v24.1c0,3.62-.35,7.11-3.49,10.1a13,13,0,0,1-16.44,0c-3.2-3-3.48-6.41-3.48-10.1Zm18.18-1.12a6.16,6.16,0,0,0-6.48-6.83,6.17,6.17,0,0,0-6.48,6.83v26.33a6.48,6.48,0,0,0,1.82,5.16,7.35,7.35,0,0,0,9.33,0,6.51,6.51,0,0,0,1.81-5.16Z" transform="translate(-157.96 -383.07)"/>
        <path class="cls-2" d="M848.27,630.85l13.8,36.29V630.85h5.22v48.76h-5.22L848.27,644v35.6h-5.22V630.85Z" transform="translate(-157.96 -383.07)"/>
        <path class="cls-2" d="M875,630.85H894.6v4.8H880.25v17h12.68v4.53H880.25V674.8h14.56v4.81H875Z" transform="translate(-157.96 -383.07)"/>
        <path class="cls-2" d="M916.54,642.55a8.81,8.81,0,0,0-1.46-5.3,5.51,5.51,0,0,0-4.67-2,5.74,5.74,0,0,0-4.25,1.61c-1.67,1.74-1.81,4-1.81,5.92a11.31,11.31,0,0,0,1.25,5.85,9,9,0,0,0,3.83,2.65l4.46,1.6c2,.76,4.6,1.88,6.2,4.11,1.74,2.44,1.95,5,1.95,8.08v1.74c0,4.81-1.32,8.29-3.2,10.45-1.74,1.88-4.81,3.07-8.71,3.07-4.81,0-7.8-1.68-9.41-3.83-2-2.79-2.09-7.46-2.09-8.09v-1.74h5.23v1.4a9,9,0,0,0,1.39,5.15,6,6,0,0,0,4.81,2c3.27,0,4.6-1.25,5.36-2.16,1.33-1.67,1.4-4,1.4-5.64v-1.88c0-1.88-.21-4.32-1.4-5.78a8.25,8.25,0,0,0-4-2.65l-5.29-1.88A9.25,9.25,0,0,1,900.1,650a17.37,17.37,0,0,1-1-6.89v-1.47a11.6,11.6,0,0,1,3.49-8.71c2.16-2.15,4.94-2.78,8-2.78,6.69,0,11.14,4.25,11.14,12.12v1.67h-5.22Z" transform="translate(-157.96 -383.07)"/>
      </g>
      <g>
        <path class="cls-2" d="M705.34,399.36l1.38,1.37a153.12,153.12,0,0,0-26.81,33.83q-10.39,18-24.93,56.37L618.4,586.64l14.91,13H575.56L592.1,586,546.25,455.48,527,438.94h62.13l-17.66,17.67,41.33,117.63,4.89-11.65-37-104.23,12.79-12.65,2.25,2.38-11.15,11,34.7,99.09,26.56-70.9q11.89-31.57,11.9-44.22a29.5,29.5,0,0,0-9.39-21.92l2.37-.51Q687.19,413.65,705.34,399.36Zm6.77,7.64,1.12,2.88q-23.93,18.66-49.35,85.18l-35.33,92.08,19.54,22.8H583.45l-2.76-3.38h60L624.92,588l36-93.83,6.76-17.79a238.86,238.86,0,0,1,21.3-42.15Q701.22,415.14,712.11,407Z" transform="translate(-157.96 -383.07)"/>
        <path class="cls-2" d="M672.65,560.61a36.89,36.89,0,0,1-1.44-9.79q0-7.12,3.56-11.43a11.58,11.58,0,0,1,9.41-4.31,13,13,0,0,1,9.23,3.57,11.31,11.31,0,0,1,3.8,8.55q0,10.21-14.52,14.79,5.64,14.4,11.86,23.39a17.3,17.3,0,0,0,1.33-4A98.18,98.18,0,0,1,686.79,564l.74-.32q12.72-5.16,12.71-15.53a15.14,15.14,0,0,0-2.55-7.87l-.43-.69a11.9,11.9,0,0,1,4.26,9.36q0,10.11-12.87,16a93.7,93.7,0,0,0,7.5,14.63c.14-1.7.21-3.39.21-5.05a36.09,36.09,0,0,0-.48-6.49l.53.32a50.93,50.93,0,0,0,13.46,7.76,71.77,71.77,0,0,0-11.44,15.37q6.23,8.78,12.07,8.77a5.91,5.91,0,0,0,3.89-1.32l1-.86a2.31,2.31,0,0,1,1.39-.58c1.2,0,1.8.49,1.8,1.49q0,2.24-3.51,4.44a13,13,0,0,1-7,2.21c-3.58,0-7.45-1.34-11.59-4q-7.61,8.24-19.47,8.24a26.91,26.91,0,0,1-18.82-7.13l.32-.47a31,31,0,0,0,18.5,6.16q11.12,0,18.19-7.71a22.4,22.4,0,0,1-2-1.54,27.78,27.78,0,0,1-17.44,5.95q-11.32,0-18.53-6.13A19.82,19.82,0,0,1,650,583.26a18.61,18.61,0,0,1,5.16-13.51q5.16-5.31,16.49-8.88Zm2.81,8.56q-9.57,5.31-9.57,15.36a15.61,15.61,0,0,0,2.76,9.34,14.57,14.57,0,0,0,7.82,5.4V600a12.94,12.94,0,0,1-8.64-4.89,15.44,15.44,0,0,1-3.32-10q0-11.05,10.36-17.28l-.26-.69c-.25-.6-.48-1.2-.69-1.81a20.08,20.08,0,0,0-9.52,7.56,20.57,20.57,0,0,0-3.4,11.69,16.66,16.66,0,0,0,4.3,11.7,14.09,14.09,0,0,0,10.8,4.68q7.23,0,13.13-6.27Q682.32,585.18,675.46,569.17Zm9.84-13q5.75-3,5.74-9.15a8.07,8.07,0,0,0-2-5.58,6.39,6.39,0,0,0-5-2.23q-6,0-6,7A26.57,26.57,0,0,0,681.26,558a2.36,2.36,0,0,1,.53-.27l1.38-.53a7.23,7.23,0,0,0,.75-.32q-2.61-6.18-2.61-9.79,0-5.31,4.26-5.31a5.54,5.54,0,0,1,3.61,1.75l-.37.53-.43-.26a5.23,5.23,0,0,0-2.66-.85q-3.29,0-3.29,4.36Q682.43,551,685.3,556.14Zm27.33,23.77q-6.06,6.33-8.45,11l-.16.42.42.48q4.51,5.2,8.3,5.21a7.22,7.22,0,0,0,1.91-.32v.42a5.6,5.6,0,0,1-2.87.81c-3.29,0-6.31-2.21-9-6.6a53.55,53.55,0,0,1,8.88-12.23Zm9.52,21.85a11.57,11.57,0,0,1-4.28,5.75,11,11,0,0,1-6.67,2.33,12.66,12.66,0,0,1-8.46-3v-.43a14,14,0,0,0,7.23,2.08q6.71,0,10.64-6.86l.21-.38Z" transform="translate(-157.96 -383.07)"/>
        <path class="cls-2" d="M907.39,438.94l-17.17,17.42V585l15.41,14.66H848L865.42,585V500.7L825.71,609.94h-12l-1-3.38h10.9l41.84-116.51V470.89l-46.6,128.65h-8.77L775.72,498.45v66.26q0,13.29,1.76,18.8t8.27,12.15L797,609.94H731.5l-2.25-3.38h61.51l-4.64-6.89H730.25l2.63-1.38q13.9-7.63,18.35-15.47t4.45-24.74V454.48l-16.53-15.54h64.76l-18.16,16.41L821.2,560.21l4.51-10.9-32.07-92.95,16.41-12.15,2.63,2.12-15.66,11,29.81,87.31,32.33-89.32-15.29-16.41ZM765.58,468.63v90q0,20.67,3.94,28.44t16.35,11.27l-1.13-1.88q-12.27-8.52-12.27-24.55V488.55ZM914.4,448.71l-14.16,10.15V585.14l21.8,24.8H855.52l-1.75-3.38H914.4L897,586.89V456.73l14.78-10.14Z" transform="translate(-157.96 -383.07)"/>
      </g>
    </g>
  </g>
</svg>
