<svg id="Capa_1" data-name="Capa 1" xmlns="http://www.w3.org/2000/svg" xmlns:xlink="http://www.w3.org/1999/xlink" viewBox="0 0 764.08 313.84">
  <defs>
    <style>
      .cls-1 {
        fill: none;
        stroke: #000;
        stroke-miterlimit: 10;
      }

      .cls-2 {
        fill: #2a83c5;
      }

      .cls-3 {
        fill: url(#Degradado_sin_nombre_5);
      }

      .cls-4 {
        fill: #fff;
      }

      .cls-5 {
        fill: #333;
      }
    </style>
    <linearGradient id="Degradado_sin_nombre_5" data-name="Degradado sin nombre 5" x1="325.88" y1="696.92" x2="325.88" y2="383.08" gradientUnits="userSpaceOnUse">
      <stop offset="0" stop-color="#1564ad"/>
      <stop offset="1" stop-color="#24305e"/>
    </linearGradient>
  </defs>
  <g>
    <path class="cls-1" d="M234.23,658.76l.25.22-.12-.1Z" transform="translate(-157.96 -383.08)"/>
    <path class="cls-2" d="M401.94,579.83c-2.68,3.6-7,7.77-13.62,12.57-24.48,17.76-60,16.58-101,15.6s-67.8,8-68.59,22.74c-.64,11.93,10.2,23.15,14.41,27-3.17-2.78-6.23-5.7-9.15-8.73-24.78-28.15-12-58.67,25.39-62.71,42.32-4.57,80.52,11.48,120.72,5C385.48,588.83,395.47,584.37,401.94,579.83Z" transform="translate(-157.96 -383.08)"/>
    <path class="cls-3" d="M493.63,545.38c-2.79,84.73-73.48,152.28-158.25,151.53a156.2,156.2,0,0,1-100.61-37.69h0l0,0-.06,0-.18-.15-.25-.22c-.2-.17-.45-.38-.73-.64l-.19-.17-.19-.17c-4.21-3.89-15.05-15.11-14.41-27C219.5,616,246.3,607,287.3,608s76.54,2.16,101-15.6c6.6-4.8,10.94-9,13.62-12.57,8.09-10.88,1.13-16.6-3.72-18.77-13.89-6.21-14.19-28.23-27.94-47.3-11.85-16.43-31.64-15.23-36.66-21s.29-18-4.29-20.7-32.21,13.08-50,39.33c-13.6,20.1-11.83,33.7-32.08,37-14.7,2.41-41.12-7-48.28-9.71a.5.5,0,0,1,.11-1c4.45-.74,15.68-3.49,24.32-12.85a37.69,37.69,0,0,0,6.61-9.9,2.13,2.13,0,0,0-3.37-2.46c-8.82,7.91-26.33,19.57-45.87,10.4h0c-19-8.91-22.26-32.26-22.76-46.77a8.66,8.66,0,0,0,3.51.94c4.14,0,17.89-19.74,17.89-23.73,0-1.53-1.1-3-2.33-4.19,8.4.14,20.65.7,31.86-.22h0c10-.8,19.08-2.76,24-7.19,11.08-10,9.34-28.24,43.08-46.48l0,0a156.39,156.39,0,0,1,60.73-12.19c65.66,0,122.64,36,145.31,97.56,4.87,13.21,8,41-22.82,51.45-28.42,9.65-61.61-9-80.54-83.16a2.16,2.16,0,0,0-4.25.73c3.48,33.16,16.77,88.05,66.35,98.1,17.35,3.51,35.67-7.68,47.89-17.6a2.94,2.94,0,0,1,4.8,2.13Q493.85,538.77,493.63,545.38Z" transform="translate(-157.96 -383.08)"/>
    <path class="cls-2" d="M179.44,453.37c0,4-13.75,23.73-17.89,23.73a8.66,8.66,0,0,1-3.51-.94c-.16-4.53,0-8.19,0-10.3,0-8.87,1.33-16.7,16.11-16.7l3,0C178.34,450.36,179.44,451.84,179.44,453.37Z" transform="translate(-157.96 -383.08)"/>
    <path class="cls-4" d="M263.62,450.66A5.26,5.26,0,0,1,261,450a5.34,5.34,0,0,1-2.08-7.25c.29-.52,7.23-12.8,22-12.8,15,0,21.24,12.52,21.49,13.05a5.32,5.32,0,1,1-9.57,4.65A13.78,13.78,0,0,0,281,440.58c-8.42,0-12.56,7-12.73,7.34A5.27,5.27,0,0,1,263.62,450.66Z" transform="translate(-157.96 -383.08)"/>
    <path class="cls-2" d="M370.33,546.44a3.31,3.31,0,0,1-3-1.88,7.28,7.28,0,0,0-6.26-3.69,8.23,8.23,0,0,0-6.71,3.85,3.32,3.32,0,1,1-5.82-3.21c.16-.3,4.11-7.29,12.53-7.29a14,14,0,0,1,12.24,7.44,3.32,3.32,0,0,1-1.54,4.44A3.28,3.28,0,0,1,370.33,546.44Z" transform="translate(-157.96 -383.08)"/>
    <g>
      <g>
        <path class="cls-5" d="M585.35,630.83c2.72,0,6.55.42,9.54,3.62,2.58,3,2.93,6.41,2.93,9.76v22c0,3.34-.35,6.75-2.93,9.75-3,3.2-6.82,3.62-9.54,3.62H575.6V630.83Zm7.25,35V644.62c0-1.88-.07-4.73-2-6.68-1.68-1.88-3.84-2-5.58-2h-4.25v38.59h4.25c1.74,0,3.9-.14,5.58-2C592.53,670.54,592.6,667.68,592.6,665.8Z" transform="translate(-157.96 -383.08)"/>
        <path class="cls-5" d="M610.7,630.83v48.76h-5.22V630.83Z" transform="translate(-157.96 -383.08)"/>
        <path class="cls-5" d="M635.43,642.53a8.78,8.78,0,0,0-1.46-5.29,5.48,5.48,0,0,0-4.67-2,5.78,5.78,0,0,0-4.25,1.6c-1.67,1.74-1.81,4-1.81,5.92a11.3,11.3,0,0,0,1.25,5.85,8.88,8.88,0,0,0,3.84,2.65l4.45,1.6c2,.77,4.6,1.88,6.2,4.11,1.74,2.44,1.95,5,1.95,8.08v1.75c0,4.8-1.32,8.28-3.2,10.44-1.74,1.88-4.81,3.07-8.71,3.07-4.8,0-7.8-1.67-9.4-3.83-2-2.79-2.09-7.46-2.09-8.08v-1.74h5.22V668a9,9,0,0,0,1.4,5.15,5.92,5.92,0,0,0,4.8,2c3.28,0,4.6-1.25,5.37-2.16,1.32-1.67,1.39-4,1.39-5.64v-1.88c0-1.88-.21-4.32-1.39-5.78a8.41,8.41,0,0,0-4-2.65l-5.3-1.88A9.24,9.24,0,0,1,619,650a17.57,17.57,0,0,1-1-6.9v-1.46a11.58,11.58,0,0,1,3.48-8.71c2.16-2.16,4.94-2.78,8-2.78,6.69,0,11.15,4.24,11.15,12.12v1.67h-5.23Z" transform="translate(-157.96 -383.08)"/>
        <path class="cls-5" d="M665.24,630.83v4.81h-9v44H651v-44h-9v-4.81Z" transform="translate(-157.96 -383.08)"/>
        <path class="cls-5" d="M679.73,630.83c5.29,0,12.89.7,12.89,11.57v3.83c0,5.36-2.23,9-6.69,10.37l7.8,23H688.3l-7.18-21.94H675.2v21.94H670V630.83Zm-4.53,22.29h5.16c3.9,0,7-2.16,7-6.55V642c0-6.06-4.67-6.62-7.31-6.62H675.2Z" transform="translate(-157.96 -383.08)"/>
        <path class="cls-5" d="M704.8,630.83v48.76h-5.22V630.83Z" transform="translate(-157.96 -383.08)"/>
        <path class="cls-5" d="M722.77,630.83c6.69,0,12.05,3.48,12.05,10.73v3.06c0,4.39-1.39,7.53-6.13,9.55,5.85,2,6.13,6.34,6.13,9.61v3.83c0,3.07-.35,12-12,12h-10V630.83Zm-4.67,21h4c5.85,0,7.45-3.9,7.45-7.25v-3.13c0-3.07-2.16-6.13-7.11-6.13H718.1Zm0,23.19h4.25c4.25,0,7.25-2.57,7.25-8.36v-3.48a6.55,6.55,0,0,0-6.83-6.82H718.1Z" transform="translate(-157.96 -383.08)"/>
        <path class="cls-5" d="M747.22,630.83v37.55c0,4.11,1.95,6.82,5.85,6.82s5.85-2.71,5.85-6.82V630.83h5.22v36.43c0,10.31-6.06,13-11.07,13s-11.08-2.72-11.08-13V630.83Z" transform="translate(-157.96 -383.08)"/>
        <path class="cls-5" d="M788.45,641.35c0-1.74-.69-6.13-5.71-6.13-5.5,0-6,4.74-6,7.38v26.26c0,1.75.84,6.34,5.64,6.34,2.72,0,6.06-1.18,6.06-6.82v-1.54h5.3v1.82c0,7-3.21,11.63-11.56,11.63-9.76,0-10.66-7.94-10.66-10.73V640.72c0-5.57,3.83-10.58,10.93-10.58,6.06,0,11.08,2.92,11.08,10.65v3.14h-5.09Z" transform="translate(-157.96 -383.08)"/>
        <path class="cls-5" d="M804.54,630.83v48.76h-5.22V630.83Z" transform="translate(-157.96 -383.08)"/>
        <path class="cls-5" d="M812.27,643.16c0-3.62.35-7.1,3.48-10.1a13,13,0,0,1,16.44,0c3.14,3,3.49,6.48,3.49,10.1v24.1c0,3.62-.35,7.11-3.49,10.1a13,13,0,0,1-16.44,0c-3.2-3-3.48-6.41-3.48-10.1Zm18.18-1.11a6.5,6.5,0,1,0-13,0v26.33a6.45,6.45,0,0,0,1.81,5.15,7.35,7.35,0,0,0,9.33,0,6.49,6.49,0,0,0,1.81-5.15Z" transform="translate(-157.96 -383.08)"/>
        <path class="cls-5" d="M848.28,630.83l13.79,36.29V630.83h5.23v48.76h-5.23L848.28,644v35.59h-5.22V630.83Z" transform="translate(-157.96 -383.08)"/>
        <path class="cls-5" d="M875,630.83H894.6v4.81H880.25v17h12.68v4.53H880.25v17.63h14.56v4.8H875Z" transform="translate(-157.96 -383.08)"/>
        <path class="cls-5" d="M916.54,642.53a8.78,8.78,0,0,0-1.46-5.29,5.48,5.48,0,0,0-4.67-2,5.78,5.78,0,0,0-4.25,1.6c-1.67,1.74-1.81,4-1.81,5.92a11.3,11.3,0,0,0,1.25,5.85,8.88,8.88,0,0,0,3.84,2.65l4.45,1.6c2,.77,4.6,1.88,6.2,4.11,1.74,2.44,1.95,5,1.95,8.08v1.75c0,4.8-1.32,8.28-3.2,10.44-1.74,1.88-4.81,3.07-8.71,3.07-4.8,0-7.8-1.67-9.4-3.83-2-2.79-2.09-7.46-2.09-8.08v-1.74h5.22V668a9,9,0,0,0,1.39,5.15,6,6,0,0,0,4.81,2c3.27,0,4.6-1.25,5.36-2.16,1.33-1.67,1.4-4,1.4-5.64v-1.88c0-1.88-.21-4.32-1.4-5.78a8.32,8.32,0,0,0-4-2.65l-5.29-1.88A9.24,9.24,0,0,1,900.1,650a17.57,17.57,0,0,1-1-6.9v-1.46a11.58,11.58,0,0,1,3.48-8.71c2.16-2.16,4.94-2.78,8-2.78,6.69,0,11.14,4.24,11.14,12.12v1.67h-5.22Z" transform="translate(-157.96 -383.08)"/>
      </g>
      <g>
        <path class="cls-5" d="M705.37,399.37l1.38,1.38a152.55,152.55,0,0,0-26.81,33.82q-10.4,18-24.93,56.36l-36.57,95.7,14.91,13H575.6L592.14,586,546.29,455.49,527,439h62.13l-17.66,17.67L612.8,574.23l4.89-11.65-37-104.21,12.77-12.65,2.26,2.38-11.15,11,34.7,99.08,26.55-70.9q11.89-31.56,11.9-44.22a29.5,29.5,0,0,0-9.39-21.91l2.37-.5Q687.21,413.65,705.37,399.37Zm6.76,7.64,1.13,2.88q-23.93,18.67-49.35,85.18l-35.33,92.06,19.54,22.8H583.49l-2.75-3.38h60L625,588l35.95-93.82,6.76-17.78A238.86,238.86,0,0,1,689,434.26Q701.23,415.15,712.13,407Z" transform="translate(-157.96 -383.08)"/>
        <path class="cls-5" d="M672.67,560.6a37.14,37.14,0,0,1-1.43-9.78q0-7.12,3.56-11.44a11.6,11.6,0,0,1,9.41-4.3,13,13,0,0,1,9.23,3.56,11.33,11.33,0,0,1,3.8,8.56q0,10.21-14.52,14.78,5.64,14.41,11.86,23.4a18,18,0,0,0,1.33-4A97.52,97.52,0,0,1,686.82,564l.74-.32q12.71-5.18,12.71-15.53a15.12,15.12,0,0,0-2.55-7.87l-.43-.69a11.92,11.92,0,0,1,4.25,9.35q0,10.11-12.86,16a93.1,93.1,0,0,0,7.5,14.62c.13-1.7.21-3.38.21-5.05a37.2,37.2,0,0,0-.48-6.49l.53.32a50.89,50.89,0,0,0,13.45,7.76,72.58,72.58,0,0,0-11.43,15.37q6.22,8.78,12.07,8.77a5.89,5.89,0,0,0,3.88-1.32l1-.86a2.32,2.32,0,0,1,1.38-.58c1.2,0,1.81.49,1.81,1.49q0,2.24-3.51,4.44a13,13,0,0,1-7,2.21c-3.58,0-7.44-1.34-11.59-4q-7.61,8.24-19.46,8.24a26.91,26.91,0,0,1-18.82-7.13l.32-.47a31,31,0,0,0,18.5,6.16q11.12,0,18.19-7.71a21,21,0,0,1-2-1.54,27.8,27.8,0,0,1-17.44,5.95q-11.32,0-18.53-6.13a19.79,19.79,0,0,1-7.2-15.77,18.61,18.61,0,0,1,5.15-13.5q5.16-5.32,16.49-8.88Zm2.82,8.56q-9.57,5.33-9.57,15.37a15.6,15.6,0,0,0,2.76,9.33,14.52,14.52,0,0,0,7.82,5.4v.68a12.94,12.94,0,0,1-8.64-4.89,15.43,15.43,0,0,1-3.32-10q0-11.05,10.36-17.28l-.26-.69c-.25-.6-.48-1.21-.69-1.81a20.06,20.06,0,0,0-9.52,7.55,20.58,20.58,0,0,0-3.4,11.7,16.64,16.64,0,0,0,4.3,11.69,14.05,14.05,0,0,0,10.8,4.68q7.23,0,13.13-6.27Q682.35,585.17,675.49,569.16Zm9.84-13q5.73-3,5.74-9.14a8.07,8.07,0,0,0-2-5.58,6.38,6.38,0,0,0-5-2.24q-6,0-6,7a26.53,26.53,0,0,0,3.14,11.8,2.68,2.68,0,0,1,.53-.26l1.38-.53.74-.32q-2.6-6.18-2.6-9.79,0-5.31,4.25-5.31a5.54,5.54,0,0,1,3.62,1.75l-.38.53-.42-.26a5.26,5.26,0,0,0-2.66-.85q-3.29,0-3.29,4.36C682.46,549.77,683.41,552.73,685.33,556.13Zm27.32,23.77q-6.06,6.33-8.45,11l-.16.42.43.48Q709,597,712.76,597a7.35,7.35,0,0,0,1.92-.32v.43a5.71,5.71,0,0,1-2.87.8q-4.95,0-9-6.6a53.23,53.23,0,0,1,8.87-12.23Zm9.52,21.85a11.57,11.57,0,0,1-4.28,5.75,11,11,0,0,1-6.67,2.33,12.65,12.65,0,0,1-8.45-3v-.43a14,14,0,0,0,7.23,2.08q6.69,0,10.63-6.86l.22-.38Z" transform="translate(-157.96 -383.08)"/>
        <path class="cls-5" d="M907.39,439l-17.17,17.41V585l15.41,14.66H848L865.43,585V500.71L825.72,609.93h-12l-1-3.38h10.9l41.84-116.49V470.89l-46.6,128.64h-8.77L775.74,498.45v66.26q0,13.27,1.75,18.79t8.27,12.15L797,609.93h-65.5l-2.26-3.38h61.5l-4.63-6.89H730.27l2.63-1.38q13.9-7.63,18.35-15.47t4.45-24.74V454.48L739.17,439h64.75l-18.16,16.41L821.21,560.2l4.51-10.9-32.07-92.94,16.41-12.15,2.63,2.13-15.66,11,29.81,87.31,32.32-89.31L843.88,439ZM765.6,468.64v89.93q0,20.67,3.94,28.44t16.35,11.27l-1.13-1.88q-12.27-8.52-12.28-24.55v-83.3Zm148.8-19.92-14.15,10.15V585.13L922,609.93H855.53l-1.75-3.38H914.4L897,586.88V456.74l14.78-10.15Z" transform="translate(-157.96 -383.08)"/>
      </g>
    </g>
  </g>
</svg>
